<?xml version="1.0" encoding="utf-8"?>
<!-- Generator: Adobe Illustrator 12.0.0, SVG Export Plug-In . SVG Version: 6.00 Build 51448)  -->
<!DOCTYPE svg PUBLIC "-//W3C//DTD SVG 1.1//EN" "http://www.w3.org/Graphics/SVG/1.1/DTD/svg11.dtd" [
	<!ENTITY ns_svg "http://www.w3.org/2000/svg">
	<!ENTITY ns_xlink "http://www.w3.org/1999/xlink">
]>
<svg  version="1.1" id="Layer_1" xmlns="&ns_svg;" xmlns:xlink="&ns_xlink;" width="171.75" height="234" viewBox="0 0 171.75 234"
	 overflow="visible" enable-background="new 0 0 171.75 234" xml:space="preserve">
<g id="Balloon" xmlns:cc="http://creativecommons.org/ns#" xmlns:svg="http://www.w3.org/2000/svg" xmlns:dc="http://purl.org/dc/elements/1.1/" xmlns:rdf="http://www.w3.org/1999/02/22-rdf-syntax-ns#">
	<path id="_x31_" d="M86.625,135.75c-13.76-15.48-33.869-23.043-47.992-38.694C26.689,83.819,8.824,66.072,6.227,47.664
		c-4.729-33.53,30.195-58.457,58.69-39.491c15.852,10.55,29.38-5.562,46.737-2.549c15.748,2.734,19.673,20.415,20.503,33.898
		c1.255,20.373-7.49,38.468-18.282,55.255c-7.725,12.017-25.018,26.143-24.25,41.722"/>
</g>
<g id="Left_String">
	<polyline fill="none" stroke="#000000" stroke-width="3" points="89.5,135.5 91.833,140.833 92.167,145.167 95.5,151.167 
		96.5,157.5 99.833,161.167 99.167,165.167 101.5,169.167 103.167,171.167 100.5,176.167 101.5,180.167 102.167,183.167 	"/>
</g>
<g id="Right_String">
	<path fill="none" stroke="#000000" stroke-width="3" d="M91.167,135.5c3.226,6.131,11.61,12.551,23.333,25.25
		c8.016,8.684,21.318,11.386,23.734,25.078c2.228,12.622,3.438,24.02,9.266,35.672c6.459,12.918,20.133,2.297,30.5,10.5"/>
</g>
</svg>
