<?xml version="1.0" encoding="UTF-8" standalone="no"?>
<svg
   xmlns:dc="http://purl.org/dc/elements/1.1/"
   xmlns:cc="http://creativecommons.org/ns#"
   xmlns:rdf="http://www.w3.org/1999/02/22-rdf-syntax-ns#"
   xmlns:svg="http://www.w3.org/2000/svg"
   xmlns="http://www.w3.org/2000/svg"
   id="svg4915"
   version="1.1"
   style="fill:#000000"
   viewBox="0 0 171.75 234"
   height="234pt"
   width="171.75pt">
  <metadata
     id="metadata4921">
    <rdf:RDF>
      <cc:Work
         rdf:about="">
        <dc:format>image/svg+xml</dc:format>
        <dc:type
           rdf:resource="http://purl.org/dc/dcmitype/StillImage" />
        <dc:title></dc:title>
      </cc:Work>
    </rdf:RDF>
  </metadata>
  <defs
     id="defs4919" />
  <path
     d="m 79.5,135.75 -6,-6.75 -6,-4.5 -6.75,-4.5 -7.5,-1.5 L 45,111 35.25,101.25 26.25,93 16.5,81 9.75,69.75 4.5,62.25 l -3,-9 -1.5,-7.5 v -13.5 l 3,-9.75 6,-9 6,-5.25 9.75,-7.5 H 33 L 42.75,0 49.5,3 57,7.5 l 8.25,5.25 3.75,1.5 7.5,-3 L 84,6 89.25,5.25 h 12 l 6.75,1.5 9.75,7.5 6,9 1.5,12 V 48 l -2.25,8.25 -2.25,7.5 -1.5,6.75 -3.75,9 -3.75,7.5 -6.75,10.5 -3.75,7.5 -4.5,6 -5.25,6.75 -2.25,3 -3,5.25 -3,4.5 -0.75,6"
     id="1" />
  <path
     d="m 171.75,234 -5.25,-3 -6.75,-0.75 -7.5,1.5 -4.5,-0.75 -3.75,-4.5 -6.75,-11.25 -2.25,-10.5 -2.25,-9.75 -0.75,-5.25 -2.25,-6.75 -4.5,-6 -5.25,-6 -12.75,-9 -3.75,-2.25 -6,-8.25 -3,-4.5 -4.5,-6 -2.25,-5.25"
     id="2" />
  <path
     d="m 96,187.5 -0.75,-3 -1.5,-3 3,-6 -3.75,-5.25 0.75,-6.75 -3,-3.75 L 90,156 l -3,-5.25 -1.5,-5.25 -0.75,-5.25"
     id="3" />
</svg>
