<?xml version="1.0" encoding="utf-8"?>
<!-- Generator: Adobe Illustrator 12.0.0, SVG Export Plug-In . SVG Version: 6.00 Build 51448)  -->
<!DOCTYPE svg PUBLIC "-//W3C//DTD SVG 1.1//EN" "http://www.w3.org/Graphics/SVG/1.1/DTD/svg11.dtd" [
	<!ENTITY ns_svg "http://www.w3.org/2000/svg">
	<!ENTITY ns_xlink "http://www.w3.org/1999/xlink">
]>
<svg  version="1.1" id="banksy" xmlns="&ns_svg;" xmlns:xlink="&ns_xlink;" width="225" height="483" viewBox="0 0 225 483"
	 overflow="visible" enable-background="new 0 0 225 483" xml:space="preserve">
<path id="face" d="M144.75,51h3c-10.46-8.966-17.171-19.54,0.75-28.5c21.562-10.781-6.163-4.621-15.75-3.75
	c0.82,1.102,1.516,3.305,2.25,4.5c-7.401,3.219-16.267,3.562-24,3c3.451,3.663,8.229,7.328,12,11.25
	c-5.549-0.586-10.919-1.98-16.5-3c2.348,6.068,24.421,6.157,16.5,15.75c7.785-2.711,12.406-5.445,19.5,0.75"/>
<path id="arm" d="M115.5,141c5.94-11.462,19.53-18.444,24-30c-12.442-5.86-26.433-6.866-38.25-14.25
	c-12.324-7.701-21.174-11.777-34.5-17.25c-24.158-9.921-42.157-27.599-60-45.75c0.323,4.044,2.16,9.338,3.75,13.5
	c-3.532-0.175-6.782-1.158-9.75-3c1.602,7.51,15.458,13.609,16.5,19.5c1.062,6-5.625,7.851-6,14.25
	c30.43-8.846,44.224,19.807,68.25,33c10.29,5.65,31.688,7.241,33.75,21c1.649,11.009-12.584,18.696-6.75,30.75
	c1.558-7.013,1.792-14.314,7.5-19.5"/>
<path id="body" d="M225,54c-1.758-23.224-16.272-42.17-36.75-52.5c-0.881,1.232-0.826,2.478,0,3.75
	c-4.706-1.824-9.397-3.307-14.25-4.5c0.469,1.346,1.682,2.827,3,3.75c-5.88,1.671-15.706-4.029-23.25-4.5
	c-10.024-0.625-19.094,4.347-30,3c0.94,1.582,3.547,3.713,5.25,4.5h-6c11.099,9.082,41.512-7.116,48.75,4.5
	c-1.5,0.25-3,0.5-4.5,0.75c3.95,3.745,8.886,6.885,10.5,12c-3.731-0.987-7.422-1.481-11.25-1.5c0.99,1.628,2.994,3.3,5.25,4.5
	c-3.79-0.222-7.147,0.644-9,3c4.16,0.054,8.022,1.315,11.25,3.75c-5.47,1.241-12.168-0.101-17.25,2.25
	c-4.989,19.372,28.031-6.45,30,12.75c-9.946,0.764-21.628-4.052-30.75-1.5c16.232,9.974-15.407,10.802-23.25,16.5
	c0.525,7.45-6.037,2.64-11.25,1.5c5.403,7.023,10.5,2.994,10.5,12c0,5.216-7.374,6.398-11.25,5.25
	c1.908,9.121,17.015,12.396,22.5,20.625c6.619,9.929,10.015,0.813,19.5,7.125l-2.25,0.75c2.672,3.975,20.926,7.628,0.375,13.5
	c-6.88,1.966-11.772,2.556-14.625,9c-1.076,2.432-2.385,12.884,3,7.5c13.603-13.603,26.25-8.228,26.25,12.375
	c0,6.873,6.387,43.284,12.75,34.125c13.064,10.691-1.445,35.744-9.75,46.125c-5.407,6.759-6.925,20.354-18,22.125
	c3.165-4.826,8.035-9.568,6.75-16.5c-6.722,10.753-10.709-0.484,3-5.625c14.14-5.302,12.772-30.636,10.5-42.375
	c-2.664-13.761-9.194-27.116-15.75-38.25c-11.946-20.291-7.759-0.619-24-4.5c0.728,11.525,14.857,10.621,0,21.75
	c3.29-0.079,6.558-0.583,9.75-1.5c-2.161,1.469-3.502,3.367-6,4.5c0.25,0.75,0.5,1.5,0.75,2.25c2.49-0.509,5.04-0.369,7.5-0.75
	c-5.144,10.472-11.649,13.515-23.25,15.75c11.252,8.25-7.349,35.711-12.75,46.5c-6.526,13.038-12.758,50.148-27.75,54.75
	c5.271-22.311,28.577-46.261,27-70.5c-13.744,6.162-18.819,45.67-28.5,59.25c-2.106-9.928,6.281-22.192,9-31.5
	c3.783-12.951,9.623-19.995,15.375-31.5c4.151-8.303,5.968-15.437,14.25-18.75c10.915-4.366-15.364-5.989-15.75-6.375
	c-4.668-4.668-20.821,43.573-22.875,50.625c-5.389,18.5-14.082,39.54-27,54c-8.515,9.531-53.406,44.922-32.694,55.277
	c17.178,8.59,51.108,8.813,70.861,7.167c33.517-2.793,32.532,19.569,36.833,46.306c1.818,11.301,1.5,24.533,1.5,36
	c0,14.188,1.89,16.764-6,26.625c-3.245,4.056-5.966,5.737-11.25,4.125c2.302-1.922,3.885-4.171,4.5-6.75
	c-9.425,1.47-17.06,5.829-19.5,15.75c21.676,0,43.352,0,65.027,0c4.328,0,20.847,3.372,17.848-5.625
	c-1.787-5.361-2.209-5.989,3.375-7.875c-10.304-11.764,0.934-46.44,1.875-61.5c0.727-11.621-5.223-19.875-7.125-30.75
	c-2.749-15.711,1.648-13.934,14.625-15.375C233.213,357.504,213,340.36,213,320.784c0-22.617-3.75-44.686-3.75-67.413
	c0-8.017-5.279-15.195-6-23.121c-0.941-10.35,2.58-20.04,1.694-30.667c-1.143-13.718-13.664-47.364-2.819-58.208
	c13.059-13.059-33.599-33.91-10.875-36.75c16.714-2.089,28.744-31.917,33-46.125"/>
</svg>
