<?xml version="1.0" encoding="UTF-8" standalone="no"?>
<svg
   xmlns:dc="http://purl.org/dc/elements/1.1/"
   xmlns:cc="http://creativecommons.org/ns#"
   xmlns:rdf="http://www.w3.org/1999/02/22-rdf-syntax-ns#"
   xmlns:svg="http://www.w3.org/2000/svg"
   xmlns="http://www.w3.org/2000/svg"
   id="svg4876"
   version="1.1"
   style="fill:#000000"
   viewBox="0 0 225 482.24999"
   height="482.25pt"
   width="225pt">
  <metadata
     id="metadata4882">
    <rdf:RDF>
      <cc:Work
         rdf:about="">
        <dc:format>image/svg+xml</dc:format>
        <dc:type
           rdf:resource="http://purl.org/dc/dcmitype/StillImage" />
        <dc:title></dc:title>
      </cc:Work>
    </rdf:RDF>
  </metadata>
  <defs
     id="defs4880" />
  <path
     d="m 144.75,51 h 3 l -1.5,-2.25 -3.75,-3 -3,-0.75 -2.25,-3.75 -1.5,-3.75 2.25,-4.5 4.5,-5.25 4.5,-4.5 3,-1.5 6,-2.25 2.25,-1.5 -0.75,-2.25 h -3.75 l -4.5,0.75 -4.5,1.5 h -7.5 l -4.5,0.75 v 1.5 l 2.25,1.5 v 1.5 L 132.75,24 129,25.5 117.75,26.25 113.25,27 111,26.25 V 27 l 3.75,3 4.5,3.75 c 0,0 3.076,3.076 3.656,3.656 0.061,0.06 0.094,0.094 0.094,0.094 h -3.75 L 114.75,36 111,35.25 106.5,34.5 v 3 l 3.75,1.5 H 114 l 3.75,1.5 5.25,3 3,2.25 -0.75,1.5 -2.25,3 3.75,-0.75 3,-0.75 1.5,-1.5 2.25,-1.5 3,2.25 3,1.5 3,1.5"
     id="4" />
  <path
     d="m 115.5,141 3,-5.25 6,-6.75 4.5,-6 6,-4.5 2.25,-3 1.5,-3.75 0.75,-0.75 -3,-1.5 -12,-3 -6,-2.25 -6.75,-2.25 -5.25,-1.5 -5.25,-3.75 -7.5,-5.25 -3.75,-3.75 -3,-1.5 -7.5,-3.75 -6.75,-2.25 -6,-0.75 -10.5,-6 L 45.75,68.25 39,64.5 35.25,60.75 30,55.5 24.75,51 22.5,50.25 15,42.75 10.5,37.5 8.2499999,35.25 6.75,33.75 6,35.25 7.5,39 8.9999999,42 10.5,45 v 2.25 L 7.5,46.5 H 5.25 L 3,45.75 0.75,44.25 0,45.75 l 2.25,3 2.25,3 2.25,3.75 5.25,3.75 5.25,4.5 0.75,2.25 -1.5,3 -3.75,3 -1.5,1.5 V 75.75 78 h 2.25 l 3.75,-1.5 3,-0.75 L 24,75 31.5,75.75 41.25,81 54,90.75 65.25,99.750004 75.75,108 l 3.75,3 5.25,2.25 9.75,3 6,3 4.5,2.25 3.75,3 4.5,3.75 v 3.75 6 l -2.25,3 -2.25,3.75 -1.5,3 -2.25,7.5 V 159 l 1.5,3.75 0.75,-1.5 0.75,-3 0.75,-8.25 3,-3.75 2.25,-3"
     id="5" />
  <path
     d="m 225,54 -0.75,-6.75 -3.75,-12 -6.75,-13.5 -8.25,-8.25 -8.25,-6.75 -9,-5.25 L 187.5,3 188.25,5.25 183,3.75 178.5,1.5 174,0.74999996 V 1.5 l 3,3 -1.5,1.5 -3.75,-1.5 -7.5,-3 L 160.5,0.74999996 153.75,0 147.75,2.25 144,3 139.5,1.5 135,3.75 129.75,3 h -6 V 4.5 L 129,6.75 V 7.5 h -6 V 9 l 6,1.5 h 11.25 l 12,-0.7499997 L 156,8.25 h 11.25 l 4.5,1.5000003 V 12 l -4.5,0.75 0.75,1.5 5.25,3.75 4.5,4.5 v 2.25 L 173.25,24 171,23.25 h -4.5 v 1.5 l 3.75,1.5 1.5,1.5 -3,0.75 h -5.25 l -0.75,2.25 4.5,0.75 3.75,0.75 3,2.25 -0.75,0.75 h -15 l -1.5,1.5 1.5,1.5 0.75,1.5 -2.25,1.5 -0.75,2.25 0.75,0.75 12,0.75 2.25,-2.25 4.5,-1.5 h 2.25 l 4.5,1.5 3.75,2.25 0.75,4.5 h -3 -3 l -3,1.5 -2.25,0.75 L 171,51 168,48.75 165.75,48 160.5,47.25 156,48 v 1.5 l 4.5,2.25 2.25,3 -1.5,1.5 h -1.5 L 150,57 147.75,58.5 H 141 l -3,2.25 -1.5,3 -3.75,0.75 0.75,3 -0.75,1.5 H 130.5 L 126,65.25 h -3 l -1.5,0.75 3.75,4.5 4.5,0.75 3,1.5 -0.75,3.75 v 3 l -3,2.25 -2.25,2.25 h -3 l -3,-0.75 v 3 l 3.75,3 6,3.75 3.75,2.25 4.5,4.500004 3.75,2.999996 1.5,2.25 0.75,3 0.75,2.25 h 3.75 l 7.5,-1.5 4.5,0.75 1.5,1.5 -2.25,0.75 0.75,2.25 2.25,2.25 3,-1.5 2.25,-0.75 2.25,1.5 v 3 l -4.5,3.75 -3,2.25 -5.25,1.5 -5.25,0.75 -3.75,3 -3,2.25 v 2.25 l -0.75,3.75 -1.5,2.25 1.5,2.25 h 3 l 1.5,-1.5 1.5,-1.5 3,-0.75 2.25,-3 6,-3.75 5.25,1.5 5.25,5.25 0.75,6 1.5,6.75 v 5.25 l 0.75,7.5 2.25,8.25 1.5,5.25 1.5,8.25 3,5.25 h 2.25 l 1.5,-3 3,1.5 1.5,7.5 -0.75,12.75 -2.25,5.25 -3.75,8.25 -3,5.25 -3,3.75 -3,3.75 -1.5,1.5 v 4.5 l -2.25,1.5 -2.25,1.5 -0.75,3.75 -0.75,2.25 -2.25,2.25 -3.75,2.25 -3,0.75 V 255 l 1.5,-2.25 2.25,-1.5 2.25,-3 0.75,-3 V 240 h -0.75 l -0.75,1.5 -1.5,2.25 -2.25,2.25 -2.25,-0.75 v -3.75 l 0.75,-3 3,-1.5 3.75,-1.5 6,-2.25 3,-4.5 3.75,-5.25 0.75,-4.5 0.75,-9 v -6.75 l 0.75,-4.5 v -3 l -1.5,-3.75 -2.25,-5.25 -1.5,-4.5 -1.5,-5.25 -2.25,-4.5 -0.75,-5.25 -0.75,-3.75 -0.75,-3.75 -2.25,-1.5 -3.75,-4.5 -1.5,-3 -2.25,-3.75 -1.5,-2.25 -1.5,-3 h -3 l -3,3 -3,3.75 -3.75,1.5 -4.5,-0.75 -0.75,3 2.25,1.5 4.5,3 2.25,4.5 0.75,2.25 -3,2.25 -3,1.5 -2.25,2.25 -0.75,1.5 h 3 l 3,-0.75 3.75,-0.75 -2.25,2.25 -2.25,1.5 -1.5,0.75 0.75,2.25 5.25,-0.75 H 153 l -0.75,3 -3.75,3 -2.25,4.5 -3,1.5 -3,1.5 -5.25,0.75 -5.25,1.5 1.5,3 3,0.75 v 6.75 l -1.5,3 -2.25,3 -2.25,3.75 -1.5,3 v 8.25 l -2.25,1.5 -2.25,3 -1.5,3.75 -3.75,6.75 -3,6.75 -3,6 -3,4.5 v 3.75 3.75 l -2.25,3.75 -3,5.25 -1.5,5.25 -0.75,3 -3,5.25 -3,4.5 -3,3 h -2.25 l 1.5,-4.5 2.25,-5.25 3,-3.75 2.999996,-4.5 1.500004,-3 1.5,-4.5 v -5.25 l 1.5,-3.75 2.25,-3.75 0.75,-2.25 2.25,-6 2.25,-6 2.25,-4.5 1.5,-3 1.5,-6 V 222 H 114 l -3,4.5 -2.25,5.25 -1.5,5.25 -2.25,6.75 -1.5,4.5 -2.25,4.5 -1.500004,2.25 -1.5,5.25 -2.249996,3 -1.5,3 -2.25,5.25 -0.75,3.75 -2.25,3.75 -1.5,2.25 -0.75,-3 0.75,-4.5 3,-6.75 3,-6.75 0.75,-6.75 2.25,-3.75 0.75,-4.5 1.499996,-6 2.250004,-5.25 2.25,-5.25 4.5,-4.5 3,-3.75 2.25,-4.5 3,-4.5 1.5,-4.5 1.5,-3 1.5,-3 3.75,-0.75 3.75,-1.5 0.75,-2.25 -0.75,-0.75 -1.5,-1.5 -6,-0.75 -3,1.5 -6,-0.75 -2.25,-2.25 -3,0.75 -1.5,4.5 -2.25,6 -2.25,5.25 -3,6 -1.5,4.5 -3.75,6 -0.75,3 -1.5,3 -1.5,1.5 0.75,5.25 -1.5,6 -2.25,3.75 -0.75,6 -3,4.5 -2.25,6.75 -0.75,2.25 -3.75,6 -0.75,5.25 -2.25,3 -0.75,3.75 -3.75,3 -4.5,6 -2.25,3.75 -6,5.25 -9,9.75 -6.75,6.75 -6,6.75 -6,8.25 -3.75,6.75 -2.25,3.75 1.5,5.25 7.5,3.75 4.5,2.25 4.5,0.75 6,-1.5 6,1.5 6,0.75 8.25,0.75 9,1.5 6.75,0.75 h 11.25 l 9,-0.75 12.75,1.5 8.25,1.5 4.5,1.5 3,4.5 0.75,6.75 0.75,8.25 0.75,9 3,9.75 0.75,3.75 0.75,15.75 v 9 l 0.75,8.25 v 6 l 1.5,3.75 v 10.5 L 138,465 l -2.25,1.5 -3,0.75 -3,3.75 -3,3 -3.75,-0.75 h -3 l 1.5,-2.25 3,-2.25 v -2.25 h -2.25 l -3.75,1.5 -3.75,1.5 -4.5,2.25 -2.25,3.75 -2.25,4.5 -0.75,2.25 h 17.25 64.5 l 1.5,-4.5 -0.75,-2.25 -1.5,-3 0.75,-2.25 2.25,-0.75 2.25,-0.75 -2.25,-2.25 -0.75,-4.5 0.75,-6.75 0.75,-23.25 1.5,-9 1.5,-9.75 0.75,-12 -2.25,-10.5 -3,-8.25 -2.25,-6 -0.75,-9 0.75,-5.25 3,-0.75 h 8.25 l 6.75,-0.75 8.25,-3.75 5.25,-1.5 3,-1.5 v -11.25 l -1.5,-3 -1.5,-6.75 -2.25,-4.5 -2.25,-6 V 306 l -0.75,-2.25 -0.75,-3 -0.75,-19.5 -1.5,-4.5 V 252 L 208.5,248.25 204,234 l -0.75,-3.75 v -6.75 l 1.5,-7.5 0.75,-1.5 v -8.25 l -0.75,-9 V 189 l -1.5,-6 -1.5,-6 -2.25,-6 v -6 -9.75 -8.25 -3 l 5.25,-5.25 v -2.25 l -2.25,-6 -3,-5.25 -5.25,-4.5 -3.75,-4.5 -3,-3 -3,-3 -1.5,-3 0.75,-1.5 4.5,-0.75 6,-0.75 6,-5.25 6.75,-4.5 1.5,-5.25 3.75,-4.5 2.25,-3 2.25,-6 2.25,-5.25 3.75,-6.75 1.5,-5.25"
     id="6" />
</svg>
