<svg xmlns="http://www.w3.org/2000/svg" 
     xmlns:xlink="http://www.w3.org/1999/xlink" 
     width="595.276pt" height="841.89pt" 
     viewBox="0 0 595.276 841.89"
     fill="#000" 
     id="banksy">  
        <path id="5" d="M 366 488.64L 369 483.39L 375 476.64L 379.5 470.64L 385.5 466.14L 387.75 463.14L 389.25 459.39L 390 458.64L 387 457.14L 375 454.14L 369 451.89L 362.25 449.64L 357 448.14L 351.75 444.39L 344.25 439.14L 340.5 435.39L 337.5 433.89L 330 430.14L 323.25 427.89L 317.25 427.14L 306.75 421.14L 296.25 415.89L 289.5 412.14L 285.75 408.39L 280.5 403.14L 275.25 398.64L 273 397.89L 265.5 390.39L 261 385.14L 258.75 382.89L 257.25 381.39L 256.5 382.89L 258 386.64L 259.5 389.64L 261 392.64L 261 394.89L 258 394.14L 255.75 394.14L 253.5 393.39L 251.25 391.89L 250.5 393.39L 252.75 396.39L 255 399.39L 257.25 403.14L 262.5 406.89L 267.75 411.39L 268.5 413.64L 267 416.64L 263.25 419.64L 261.75 421.14L 261.75 423.39L 261.75 425.64L 264 425.64L 267.75 424.14L 270.75 423.39L 274.5 422.64L 282 423.39L 291.75 428.64L 304.5 438.39L 315.75 447.39L 326.25 455.64L 330 458.64L 335.25 460.89L 345 463.89L 351 466.89L 355.5 469.14L 359.25 472.14L 363.75 475.89L 363.75 479.64L 363.75 485.64L 361.5 488.64L 359.25 492.39L 357.75 495.39L 355.5 502.89L 355.5 506.64L 357 510.39L 357.75 508.89L 358.5 505.89L 359.25 497.64L 362.25 493.89L 364.5 490.89" />
        <path id="6" d="M 475.5 401.64L 474.75 394.89L 471 382.89L 464.25 369.39L 456 361.14L 447.75 354.39L 438.75 349.14L 438 350.64L 438.75 352.89L 433.5 351.39L 429 349.14L 424.5 348.39L 424.5 349.14L 427.5 352.14L 426 353.64L 422.25 352.14L 414.75 349.14L 411 348.39L 404.25 347.64L 398.25 349.89L 394.5 350.64L 390 349.14L 385.5 351.39L 380.25 350.64L 374.25 350.64L 374.25 352.14L 379.5 354.39L 379.5 355.14L 373.5 355.14L 373.5 356.64L 379.5 358.14L 390.75 358.14L 402.75 357.39L 406.5 355.89L 417.75 355.89L 422.25 357.39L 422.25 359.64L 417.75 360.39L 418.5 361.89L 423.75 365.64L 428.25 370.14L 428.25 372.39L 423.75 371.64L 421.5 370.89L 417 370.89L 417 372.39L 420.75 373.89L 422.25 375.39L 419.25 376.14L 414 376.14L 413.25 378.39L 417.75 379.14L 421.5 379.89L 424.5 382.14L 423.75 382.89L 408.75 382.89L 407.25 384.39L 408.75 385.89L 409.5 387.39L 407.25 388.89L 406.5 391.14L 407.25 391.89L 419.25 392.64L 421.5 390.39L 426 388.89L 428.25 388.89L 432.75 390.39L 436.5 392.64L 437.25 397.14L 434.25 397.14L 431.25 397.14L 428.25 398.64L 426 399.39L 421.5 398.64L 418.5 396.39L 416.25 395.64L 411 394.89L 406.5 395.64L 406.5 397.14L 411 399.39L 413.25 402.39L 411.75 403.89L 410.25 403.89L 400.5 404.64L 398.25 406.14L 391.5 406.14L 388.5 408.39L 387 411.39L 383.25 412.14L 384 415.14L 383.25 416.64L 381 416.64L 376.5 412.89L 373.5 412.89L 372 413.64L 375.75 418.14L 380.25 418.89L 383.25 420.39L 382.5 424.14L 382.5 427.14L 379.5 429.39L 377.25 431.64L 374.25 431.64L 371.25 430.89L 371.25 433.89L 375 436.89L 381 440.64L 384.75 442.89L 389.25 447.39L 393 450.39L 394.5 452.64L 395.25 455.64L 396 457.89L 399.75 457.89L 407.25 456.39L 411.75 457.14L 413.25 458.64L 411 459.39L 411.75 461.64L 414 463.89L 417 462.39L 419.25 461.64L 421.5 463.14L 421.5 466.14L 417 469.89L 414 472.14L 408.75 473.64L 403.5 474.39L 399.75 477.39L 396.75 479.64L 396.75 481.89L 396 485.64L 394.5 487.89L 396 490.14L 399 490.14L 400.5 488.64L 402 487.14L 405 486.39L 407.25 483.39L 413.25 479.64L 418.5 481.14L 423.75 486.39L 424.5 492.39L 426 499.14L 426 504.39L 426.75 511.89L 429 520.14L 430.5 525.39L 432 533.64L 435 538.89L 437.25 538.89L 438.75 535.89L 441.75 537.39L 443.25 544.89L 442.5 557.64L 440.25 562.89L 436.5 571.14L 433.5 576.39L 430.5 580.14L 427.5 583.89L 426 585.39L 426 589.89L 423.75 591.39L 421.5 592.89L 420.75 596.64L 420 598.89L 417.75 601.14L 414 603.39L 411 604.14L 411 602.64L 412.5 600.39L 414.75 598.89L 417 595.89L 417.75 592.89L 417.75 587.64L 417 587.64L 416.25 589.14L 414.75 591.39L 412.5 593.64L 410.25 592.89L 410.25 589.14L 411 586.14L 414 584.64L 417.75 583.14L 423.75 580.89L 426.75 576.39L 430.5 571.14L 431.25 566.64L 432 557.64L 432 550.89L 432.75 546.39L 432.75 543.39L 431.25 539.64L 429 534.39L 427.5 529.89L 426 524.64L 423.75 520.14L 423 514.89L 422.25 511.14L 421.5 507.39L 419.25 505.89L 415.5 501.39L 414 498.39L 411.75 494.64L 410.25 492.39L 408.75 489.39L 405.75 489.39L 402.75 492.39L 399.75 496.14L 396 497.64L 391.5 496.89L 390.75 499.89L 393 501.39L 397.5 504.39L 399.75 508.89L 400.5 511.14L 397.5 513.39L 394.5 514.89L 392.25 517.14L 391.5 518.64L 394.5 518.64L 397.5 517.89L 401.25 517.14L 399 519.39L 396.75 520.89L 395.25 521.64L 396 523.89L 401.25 523.14L 403.5 523.14L 402.75 526.14L 399 529.14L 396.75 533.64L 393.75 535.14L 390.75 536.64L 385.5 537.39L 380.25 538.89L 381.75 541.89L 384.75 542.64L 384.75 549.39L 383.25 552.39L 381 555.39L 378.75 559.14L 377.25 562.14L 377.25 570.39L 375 571.89L 372.75 574.89L 371.25 578.64L 367.5 585.39L 364.5 592.14L 361.5 598.14L 358.5 602.64L 358.5 606.39L 358.5 610.14L 356.25 613.89L 353.25 619.14L 351.75 624.39L 351 627.39L 348 632.64L 345 637.14L 342 640.14L 339.75 640.14L 341.25 635.64L 343.5 630.39L 346.5 626.64L 349.5 622.14L 351 619.14L 352.5 614.64L 352.5 609.39L 354 605.64L 356.25 601.89L 357 599.64L 359.25 593.64L 361.5 587.64L 363.75 583.14L 365.25 580.14L 366.75 574.14L 366.75 569.64L 364.5 569.64L 361.5 574.14L 359.25 579.39L 357.75 584.64L 355.5 591.39L 354 595.89L 351.75 600.39L 350.25 602.64L 348.75 607.89L 346.5 610.89L 345 613.89L 342.75 619.14L 342 622.89L 339.75 626.64L 338.25 628.89L 337.5 625.89L 338.25 621.39L 341.25 614.64L 344.25 607.89L 345 601.14L 347.25 597.39L 348 592.89L 349.5 586.89L 351.75 581.64L 354 576.39L 358.5 571.89L 361.5 568.14L 363.75 563.64L 366.75 559.14L 368.25 554.64L 369.75 551.64L 371.25 548.64L 375 547.89L 378.75 546.39L 379.5 544.14L 378.75 543.39L 377.25 541.89L 371.25 541.14L 368.25 542.64L 362.25 541.89L 360 539.64L 357 540.39L 355.5 544.89L 353.25 550.89L 351 556.14L 348 562.14L 346.5 566.64L 342.75 572.64L 342 575.64L 340.5 578.64L 339 580.14L 339.75 585.39L 338.25 591.39L 336 595.14L 335.25 601.14L 332.25 605.64L 330 612.39L 329.25 614.64L 325.5 620.64L 324.75 625.89L 322.5 628.89L 321.75 632.64L 318 635.64L 313.5 641.64L 311.25 645.39L 305.25 650.64L 296.25 660.39L 289.5 667.14L 283.5 673.89L 277.5 682.14L 273.75 688.89L 271.5 692.64L 273 697.89L 280.5 701.64L 285 703.89L 289.5 704.64L 295.5 703.14L 301.5 704.64L 307.5 705.39L 315.75 706.14L 324.75 707.64L 331.5 708.39L 342.75 708.39L 351.75 707.64L 364.5 709.14L 372.75 710.64L 377.25 712.14L 380.25 716.64L 381 723.39L 381.75 731.64L 382.5 740.64L 385.5 750.39L 386.25 754.14L 387 769.89L 387 778.89L 387.75 787.14L 387.75 793.14L 389.25 796.89L 389.25 807.39L 388.5 812.64L 386.25 814.14L 383.25 814.89L 380.25 818.64L 377.25 821.64L 373.5 820.89L 370.5 820.89L 372 818.64L 375 816.39L 375 814.14L 372.75 814.14L 369 815.64L 365.25 817.14L 360.75 819.39L 358.5 823.14L 356.25 827.64L 355.5 829.89L 372.75 829.89L 437.25 829.89L 438.75 825.39L 438 823.14L 436.5 820.14L 437.25 817.89L 439.5 817.14L 441.75 816.39L 439.5 814.14L 438.75 809.64L 439.5 802.89L 440.25 779.64L 441.75 770.64L 443.25 760.89L 444 748.89L 441.75 738.39L 438.75 730.14L 436.5 724.14L 435.75 715.14L 436.5 709.89L 439.5 709.14L 447.75 709.14L 454.5 708.39L 462.75 704.64L 468 703.14L 471 701.64L 471 690.39L 469.5 687.39L 468 680.64L 465.75 676.14L 463.5 670.14L 463.5 653.64L 462.75 651.39L 462 648.39L 461.25 628.89L 459.75 624.39L 459.75 599.64L 459 595.89L 454.5 581.64L 453.75 577.89L 453.75 571.14L 455.25 563.64L 456 562.14L 456 553.89L 455.25 544.89L 455.25 536.64L 453.75 530.64L 452.25 524.64L 450 518.64L 450 512.64L 450 502.89L 450 494.64L 450 491.64L 455.25 486.39L 455.25 484.14L 453 478.14L 450 472.89L 444.75 468.39L 441 463.89L 438 460.89L 435 457.89L 433.5 454.89L 434.25 453.39L 438.75 452.64L 444.75 451.89L 450.75 446.64L 457.5 442.14L 459 436.89L 462.75 432.39L 465 429.39L 467.25 423.39L 469.5 418.14L 473.25 411.39L 474.75 406.14"/>
</svg>