<svg version="1.1" id="Layer_1" xmlns="http://www.w3.org/2000/svg" xmlns:xlink="http://www.w3.org/1999/xlink" x="0px" y="0px"
	 width="100%" viewBox="0 0 918 656" enable-background="new 0 0 918 656" xml:space="preserve">
<path fill="#FFFFFF" opacity="1.000000" stroke="none" 
	d="
M919.000000,574.000000 
	C919.000000,601.660950 919.000000,629.321960 919.000000,656.987183 
	C613.068726,656.991455 307.137482,656.991455 1.103100,656.991455 
	C1.103100,438.447144 1.103100,219.894241 1.103100,1.000000 
	C136.691376,1.000000 272.383057,1.000000 408.712708,1.283926 
	C421.568176,15.043269 433.785706,28.518686 446.136780,42.305519 
	C448.904144,44.861050 451.968536,46.762043 454.085022,49.418308 
	C458.999084,55.585587 463.403168,62.156322 468.107178,68.494354 
	C482.790283,88.277794 489.127319,110.604057 487.941711,135.036575 
	C487.041992,153.576721 482.794769,171.604355 476.433044,188.908966 
	C468.618347,210.165848 459.477020,230.932785 451.036377,251.962570 
	C445.544586,265.645355 438.154846,278.706146 436.803802,293.775543 
	C436.682281,295.130829 437.490845,296.982025 438.494934,297.956177 
	C443.576935,302.886475 448.988220,307.479645 454.023499,312.454712 
	C456.052948,314.459869 457.418304,317.137177 459.488922,320.081696 
	C460.697174,318.423126 461.500183,317.449066 462.164093,316.387939 
	C465.606354,310.886078 468.679932,305.118500 472.498352,299.893982 
	C481.810760,287.152374 492.737091,275.928070 504.692535,265.562408 
	C521.950989,250.598846 541.817139,240.414200 563.233215,233.477554 
	C589.874939,224.848328 617.245178,222.909729 644.964294,227.977280 
	C662.700928,231.219849 679.763000,236.599930 695.695984,244.996796 
	C716.517822,255.970215 734.574097,270.534454 749.389771,288.917816 
	C761.615845,304.087952 771.762573,320.477753 777.937927,339.103760 
	C782.290833,352.233185 785.915833,365.487335 787.175110,379.376465 
	C789.025024,399.778992 788.369324,419.944794 783.630920,439.944366 
	C783.105103,442.163818 783.117004,445.149231 784.199524,447.012482 
	C795.010193,465.618927 807.309082,483.259460 822.400879,498.610596 
	C834.244202,510.657501 846.944763,521.895264 859.651428,533.051880 
	C877.813232,548.998108 897.487122,562.858398 919.000000,574.000000 
z"/>
<path fill="#FDD64A" opacity="1.000000" stroke="none" 
	d="
M919.000000,573.531372 
	C897.487122,562.858398 877.813232,548.998108 859.651428,533.051880 
	C846.944763,521.895264 834.244202,510.657501 822.400879,498.610596 
	C807.309082,483.259460 795.010193,465.618927 784.199524,447.012482 
	C783.117004,445.149231 783.105103,442.163818 783.630920,439.944366 
	C788.369324,419.944794 789.025024,399.778992 787.175110,379.376465 
	C785.915833,365.487335 782.290833,352.233185 777.937927,339.103760 
	C771.762573,320.477753 761.615845,304.087952 749.389771,288.917816 
	C734.574097,270.534454 716.517822,255.970215 695.695984,244.996796 
	C679.763000,236.599930 662.700928,231.219849 644.964294,227.977280 
	C617.245178,222.909729 589.874939,224.848328 563.233215,233.477554 
	C541.817139,240.414200 521.950989,250.598846 504.692535,265.562408 
	C492.737091,275.928070 481.810760,287.152374 472.498352,299.893982 
	C468.679932,305.118500 465.606354,310.886078 462.164093,316.387939 
	C461.500183,317.449066 460.697174,318.423126 459.488922,320.081696 
	C457.418304,317.137177 456.052948,314.459869 454.023499,312.454712 
	C448.988220,307.479645 443.576935,302.886475 438.494934,297.956177 
	C437.490845,296.982025 436.682281,295.130829 436.803802,293.775543 
	C438.154846,278.706146 445.544586,265.645355 451.036377,251.962570 
	C459.477020,230.932785 468.618347,210.165848 476.433044,188.908966 
	C482.794769,171.604355 487.041992,153.576721 487.941711,135.036575 
	C489.127319,110.604057 482.790283,88.277794 468.107178,68.494354 
	C463.403168,62.156322 458.999084,55.585587 454.085022,49.418308 
	C451.968536,46.762043 448.904144,44.861050 446.149658,41.910706 
	C446.684998,38.674404 447.735016,36.170174 447.903046,33.608101 
	C448.144196,29.930632 449.295776,29.296822 452.574768,30.887545 
	C453.664734,31.416313 456.593597,30.801195 456.712677,30.268742 
	C457.731201,25.713470 458.596649,21.077663 458.917755,16.425205 
	C459.271118,11.305967 458.999420,6.143586 459.000000,1.000000 
	C460.066681,1.000000 461.133331,1.000000 462.599884,1.468418 
	C462.999756,7.953076 462.999756,13.969316 462.999756,19.555805 
	C469.638641,18.331114 472.191376,7.653049 481.732849,13.439003 
	C483.343994,11.713800 487.177460,8.859493 486.744598,7.868313 
	C484.049103,1.696000 489.804504,2.838538 492.000000,1.000000 
	C634.271057,1.000000 776.542053,1.000000 919.000000,1.000000 
	C919.000000,191.687515 919.000000,382.375092 919.000000,573.531372 
z"/>
<path fill="#FEDD6C" opacity="1.000000" stroke="none" 
	d="
M458.531342,1.000000 
	C458.999420,6.143586 459.271118,11.305967 458.917755,16.425205 
	C458.596649,21.077663 457.731201,25.713470 456.712677,30.268742 
	C456.593597,30.801195 453.664734,31.416313 452.574768,30.887545 
	C449.295776,29.296822 448.144196,29.930632 447.903046,33.608101 
	C447.735016,36.170174 446.684998,38.674404 446.016083,41.599285 
	C433.785706,28.518686 421.568176,15.043269 409.175354,1.283926 
	C425.354218,1.000000 441.708466,1.000000 458.531342,1.000000 
z"/>
<path fill="#FEDD69" opacity="1.000000" stroke="none" 
	d="
M491.531342,1.000000 
	C489.804504,2.838538 484.049103,1.696000 486.744598,7.868313 
	C487.177460,8.859493 483.343994,11.713800 481.732849,13.439003 
	C472.191376,7.653049 469.638641,18.331114 462.999756,19.555805 
	C462.999756,13.969316 462.999756,7.953076 462.999878,1.468418 
	C472.354218,1.000000 481.708466,1.000000 491.531342,1.000000 
z"/>
</svg>