<?xml version="1.0" encoding="UTF-8" standalone="no"?>
<svg
   xmlns:dc="http://purl.org/dc/elements/1.1/"
   xmlns:cc="http://creativecommons.org/ns#"
   xmlns:rdf="http://www.w3.org/1999/02/22-rdf-syntax-ns#"
   xmlns:svg="http://www.w3.org/2000/svg"
   xmlns="http://www.w3.org/2000/svg"
   style="fill-rule:evenodd"
   id="svg40"
   version="1.1"
   viewBox="0 0 138.48 104.88"
   height="104.88pt"
   width="138.48pt">
  <metadata
     id="metadata46">
    <rdf:RDF>
      <cc:Work
         rdf:about="">
        <dc:format>image/svg+xml</dc:format>
        <dc:type
           rdf:resource="http://purl.org/dc/dcmitype/StillImage" />
        <dc:title></dc:title>
      </cc:Work>
    </rdf:RDF>
  </metadata>
  <defs
     id="defs44" />
  <g
     transform="translate(-20.16,-727.65)"
     style="fill:#000;stroke:none"
     id="g38">
    <path
       id="path2"
       d="m 33.12,827.25 -0.72,-0.48 -1.44,-0.24 h -2.88 l -2.64,0.96 -1.2,0.96 v 0.72 l 0.72,0.24 v 0.48 H 24 l -0.48,-0.24 -0.96,-0.72 v -1.2 l -0.24,-0.72 -0.72,-0.48 -0.48,-0.96 h -0.48 l -0.48,-1.44 0.24,-2.4 0.72,-4.8 0.72,-4.08 1.44,-1.44 1.92,-0.48 1.2,-0.48 h 2.64 l 2.16,0.48 1.92,1.92 0.72,0.72 v 1.2 l -0.24,0.72 h -0.96 l -0.96,-0.24 -0.48,-0.24 -1.68,0.24 h -1.68 l -0.96,0.24 -0.72,0.72 -0.48,0.72 -0.72,0.24 h -1.2 l 0.24,0.96 0.24,0.24 h 0.48 l 0.72,-0.24 0.72,0.48 -0.24,0.96 H 25.2 l -1.2,0.24 v 0.96 h 0.96 0.72 l 0.24,0.48 -0.24,0.72 h -0.72 l -0.72,0.24 -0.48,0.24 v 0.48 h 0.72 l 0.72,-0.24 h 0.96 l 0.24,0.48 -0.24,0.24 -0.72,0.48 -0.72,0.48 0.24,0.48 0.48,0.24 1.44,-0.96 h 2.4 2.4 l 1.44,0.48 0.48,0.72 -0.24,0.72 v 0.72" />
    <path
       id="path4"
       d="m 33.36,818.13 0.24,1.44 v 2.16 l 0.24,1.68 0.24,2.16 0.48,1.68 0.48,1.2 v 1.44 l -0.72,1.2 -1.44,0.96 -2.16,0.48 h -2.88 l -2.64,-0.72 -1.68,-0.96 -1.44,-1.44 -0.96,-1.68 -0.72,-1.2" />
    <path
       id="path6"
       d="m 33.84,811.17 0.96,0.48 h 1.68 l 1.2,-0.48 0.96,-1.2 0.24,-0.72 v -0.48 l -0.96,-0.24 -0.72,-0.48 -0.48,-0.72 -1.44,-0.48 -0.72,-0.72 -0.72,-0.72 -2.64,-1.44 -1.92,-0.24 -2.88,-0.48 -1.68,0.24 -0.72,0.24 -0.48,-0.24 -0.72,0.48 -0.72,-0.48 0.24,-0.48 -0.96,0.72 -0.96,0.24 0.48,0.96 0.96,0.48 1.44,0.48 0.96,0.96 0.24,0.48 0.48,-0.96 0.96,-0.48 0.96,-0.24 h 2.16 l 1.68,0.48 2.16,0.72 0.48,0.96 0.24,1.92 -0.24,1.44" />
    <path
       id="path8"
       d="m 38.88,807.33 v -1.2 l 0.48,-0.96 0.72,-0.48 0.96,-0.48 0.48,-0.24 -0.48,-0.72 -0.96,-0.72 -1.68,-2.16 -0.72,-0.72 -0.48,-0.48 -1.44,-0.48 -1.2,-0.72 -2.4,-0.24 -0.96,-0.72 h -0.72 l -0.24,0.48 h -0.96 l -0.96,-0.48 -1.2,-0.24 H 25.92 24 l -1.92,0.48 -0.72,0.72 0.24,0.96 0.48,0.24 0.96,-0.24 1.44,-0.72 1.92,-0.48 2.4,0.48 1.44,0.24 -0.24,0.72 -1.44,-0.24 h -1.68 -1.44 l -0.96,0.72 h -0.72 l -0.96,0.24 -0.96,0.72 -0.72,0.24 0.48,0.96 0.48,0.72 0.96,-0.48 1.68,-0.72 2.16,-0.48 h 2.16 l 1.68,0.24 2.4,0.72 1.92,1.2 0.72,0.72 0.24,-0.24 v -0.96 l -0.24,-0.72 -0.96,-0.48 -0.24,-0.48 -1.68,-0.48 -1.44,-0.24 0.72,-0.48 1.68,0.24 1.68,0.48 0.96,0.24 0.24,1.2 0.72,1.92 0.72,1.44 0.48,1.2" />
    <path
       id="path10"
       d="m 42,798.45 0.48,-0.48 0.96,-0.96 v -0.96 -0.72 l -0.72,-1.44 -1.44,-0.24 -1.2,-1.2 -1.44,-0.72 -1.2,-0.96 -0.72,-0.72 h -0.48 l -0.48,0.24 -0.72,-0.72 -0.72,0.24 -1.68,-0.48 h -1.68 l -0.72,0.24 -0.48,-0.72 -1.2,0.72 -0.96,0.72 -0.24,1.2 v 1.2 l 0.72,-0.24 1.2,-1.2 1.2,-0.48 1.2,-0.72 0.48,-0.24 h 0.48 l 0.72,0.48 0.72,0.72 1.44,0.24 1.68,0.96 0.72,0.48 0.72,0.24 0.96,0.72 1.44,1.68 0.24,1.92 0.48,0.96" />
    <path
       id="path12"
       d="m 43.44,787.65 v -0.72 l -1.2,-0.48 -0.72,-0.96 -0.72,-1.2 -1.44,-0.72 h -0.72 v -0.96 l -0.72,-0.96 -1.2,-0.24 -1.92,-0.24 -0.24,0.72 -0.24,0.72 0.72,1.2 0.72,0.48 1.44,0.24 0.48,0.48 1.2,0.24 0.72,1.2 1.2,0.96 1.44,0.48 h 0.72" />
    <path
       id="path14"
       d="m 43.68,785.25 0.72,0.72 0.96,1.2 0.48,0.24 0.48,-0.48 0.48,-0.96 0.48,-0.96 0.48,-0.96 -0.24,-0.72 v -0.72 l -0.72,-1.2 -0.48,-1.2 -1.2,-1.2 -1.2,-0.96 -1.92,-1.2 -2.16,-1.68 -2.4,-0.72 -2.64,-0.24 -1.2,0.48 0.24,0.48 -0.72,0.72 h -1.2 l -0.48,0.96 v 0.96 l 1.2,-0.48 1.44,-0.48 0.96,-0.24 0.72,-0.48 1.44,-0.24 0.96,-0.24 h 0.72 l 0.24,0.24 -0.24,0.72 -0.48,1.44 -0.24,0.72 -0.24,0.96 v 0.96 l 0.24,0.48 1.68,0.72 0.48,-0.72 v -1.2 -1.44 l 0.48,-0.96 1.2,0.96 1.44,0.96 0.96,0.24 0.72,0.48 0.48,0.72 v 0.48 l 0.24,0.72 0.72,0.96 0.24,0.96 -0.48,0.48 H 45.6 l -0.48,-0.96 -0.48,-0.48 -0.48,0.24 0.24,0.48 -0.24,0.72 -0.72,0.24" />
    <path
       id="path16"
       d="m 49.68,776.61 -1.44,-1.2 -2.16,-1.68 -2.16,-1.44 -2.16,-1.44 -2.16,-0.96 -1.68,-0.48 -2.16,-0.24 -1.2,0.24 h -0.48 l 0.48,-0.72 0.96,-1.2 1.2,-1.68 0.96,-0.96 1.44,-1.2 h 0.96 l 0.96,-0.24 2.16,-0.24 0.96,-0.24 1.2,-0.96 1.2,-0.96 0.24,-0.72 0.24,-0.96 0.48,-0.48 -0.24,-0.72 v -0.72 l 0.72,-0.96 1.2,-0.48 0.96,-0.96 1.2,-0.72 h 0.96 l 1.44,-0.24 1.68,0.48 0.72,0.48 0.72,-0.48 0.24,-0.24 0.24,-0.96 -0.48,-1.2 -0.24,-0.72 -0.24,-0.48 h 0.72 l 0.96,-0.24 0.48,0.48 v -0.72 l -0.96,-0.96 -1.68,-0.96 -1.92,-1.44 -1.92,-0.72 -1.44,-0.48 h -3.6 l -2.16,0.48 -1.68,0.24 -0.96,0.48 h -1.2 l 0.24,-0.72 0.72,-0.72 0.48,-0.72 1.44,-0.72 1.2,-0.24 1.2,-0.48 h 1.2 l 0.48,-0.24 0.72,-0.48 0.72,-0.48 0.96,-0.24 1.2,-0.48 h 0.96 l 1.2,-0.24 h 2.88 1.68 0.72 l -0.48,0.72 -0.24,0.48 0.48,0.48 v 0.96 l -0.24,1.68 -0.24,1.92 v 1.44 l 0.48,0.48 2.64,0.48 2.88,0.24 4.08,-0.24 v -1.92 l -0.24,-1.44 0.24,-1.2 0.48,-1.2 v -0.96 -0.72 l -0.48,-0.48 -0.24,0.48 -0.24,0.72 -0.24,0.96 -0.24,0.48 0.24,0.72 -1.2,0.24 -0.24,-0.24 0.24,-0.72 -0.48,-0.48 -1.68,-0.24 -0.96,-0.24 -1.44,-0.72 -1.44,-0.72 0.96,-0.24 0.72,0.24 1.68,0.24 0.72,0.24 v -0.48 -0.96 l -0.96,-0.48 -1.44,-1.2 -0.24,-0.48 h 1.92 l -0.24,-0.48 -0.72,-0.72 -0.72,-0.48 0.72,-0.24 -0.24,-0.24 -0.24,-0.72 0.72,0.24 0.24,-0.48 -0.72,-1.2 0.72,-0.24 0.96,1.44 0.24,0.72 0.48,-0.24 0.24,0.48 0.48,1.2 0.24,1.2 h 0.48 l 0.48,-1.2 0.48,-1.2 0.48,-1.68 0.48,-0.72 0.72,-1.2 -0.24,1.2 -0.72,1.44 -0.48,1.44 -0.24,1.68 0.24,0.72 0.24,-0.48 0.96,-1.44 0.96,-1.44 0.72,-0.72 0.24,0.48 -0.48,0.72 -0.96,0.96 -0.24,0.96 -0.48,0.72 v 1.2 l 1.2,1.2 0.96,0.48 0.48,0.96 0.72,0.24 v -0.96 l 0.48,-1.92 0.48,-0.72 0.72,-1.44 0.48,-1.2 0.96,-0.72 c 0,0 0.1914,-0.144 0.4032,-0.303 0.2627,-0.197 0.5568,-0.417 0.5568,-0.417 l -1.2,1.68 -0.48,1.44 -0.96,1.44 -0.72,1.68 v 1.68 l 0.48,0.96 -0.24,0.48 -0.48,0.24 v 0.96 h 1.2 l 0.24,-1.2 0.24,-1.68 0.72,-1.68 0.72,-1.68 0.96,-1.44 1.68,-1.2 -0.24,0.96 -0.72,0.96 -0.96,1.2 -0.48,1.44 -0.48,1.2 -0.24,1.2 -0.24,1.2 0.24,0.72 1.2,1.2 0.48,0.48 0.96,0.24 0.24,-1.2 0.72,0.48 0.24,0.72 v 0.96 0.96 h 0.72 l 0.72,-0.96 -0.48,1.44 0.24,0.96 0.72,0.48 h 1.44 l 0.48,0.24 h 0.48 l 0.72,0.96 1.2,0.24 1.92,-0.24 1.68,-0.72 0.96,-0.96 1.2,-0.72 -0.72,0.96 v 0.96 h 1.44 2.4 l -0.96,1.44 -1.44,1.2 -1.68,0.96 -0.24,0.72 v 0.24 l -0.96,0.24 -0.96,-0.96 -1.44,-0.96 -1.44,-0.72 -1.44,-0.48 h -0.48 l -0.48,0.48 -0.72,-0.48 -0.96,-1.2 v -0.72 H 80.4 l -0.48,0.48 v 0.48 l -0.72,-0.24 -0.24,-0.72 -0.48,-0.96 -0.72,-0.48 H 76.8 v 0.72 l -0.24,0.72 -0.24,-0.48 -0.48,-0.96 h -0.48 v 0.96 0.96 l 0.48,0.96 0.96,1.44 1.68,2.16 0.48,0.72 v 0.72 l -0.96,-0.96 -1.2,-1.68 -0.48,-1.2 -0.96,-1.44 -0.48,-1.44 -0.48,-1.44 -0.24,-1.2 -0.48,-0.48 -0.24,0.24 v 1.2 l -0.24,0.24 -0.72,-1.2 -0.48,-1.44 v -0.96 l -0.24,-0.72 0.24,-1.44 v -0.96 l -0.48,0.24 -0.24,1.2 v 2.64 1.44 l 1.44,4.08 1.68,3.36 1.92,2.16 1.44,1.2 1.68,0.96 v 0.96 l 0.24,0.96 0.72,-0.24 0.72,-0.72 1.44,-0.24 1.44,-0.48 1.68,-0.48 1.44,-0.48 1.92,-0.72 2.4,-1.68 2.16,-1.92 1.68,-1.92 2.16,-2.16 0.96,-1.44 1.44,-1.92 0.96,-1.2 1.44,-0.96 0.96,-0.96 -0.24,0.96 -0.24,1.2 -0.24,0.96 -1.44,1.44 -1.68,1.2 -0.72,0.72 -0.24,0.72 0.72,0.24 0.96,-0.24 0.96,-0.72 0.24,-1.2 0.48,-0.48 0.72,-0.48 0.96,-0.96 v -1.2 l 1.2,0.24 1.44,-0.96 1.2,-1.44 1.68,-1.68 0.72,-0.72 0.48,0.72 -0.72,0.96 -1.68,2.16 -0.96,1.44 -0.96,2.16 -0.72,1.44 -0.48,1.68 -0.24,0.72 h -2.16 l -0.72,0.48 -0.24,0.48 0.48,0.72 v 0.48 h -1.2 v 0.48 l 0.96,0.24 0.96,-0.24 1.68,0.48 h 0.72 l 0.72,-0.24 v -0.96 -1.68 l 0.48,-0.72 h 1.2 l 0.48,0.48 0.72,-0.24 0.72,-0.24 0.48,1.68 0.72,1.2 1.2,0.72 0.72,0.24 2.64,0.24 0.72,-0.48 -0.24,-0.48 -0.96,-0.72 -1.44,-0.48 -0.24,-0.24 0.24,-0.48 0.24,-0.24 0.24,-0.48 0.72,-0.24 v -0.72 l -0.72,-0.24 v -0.72 l 2.16,-0.48 0.48,-0.48 v -1.92 l 0.72,-0.72 0.72,-0.96 0.24,-0.96 0.48,-1.44 h 0.72 l 0.96,0.24 0.72,0.24 1.2,0.48 h 1.2 l 0.72,0.72 0.48,0.72 0.48,0.48 0.48,0.48 v 0.72 l -0.48,0.24 -1.2,0.24 -1.2,0.24 -0.96,-0.24 -0.96,-0.72 -0.48,-0.24 h -1.92 l -0.24,0.96 -0.24,1.2 -0.48,1.2 -0.48,0.96 -0.24,0.72 h -0.72 l 0.24,0.72 h 1.2 0.48 l 0.72,-0.48 h 1.44 l 0.96,-0.24 0.72,0.24 -0.48,0.48 -0.48,0.48 v 0.72 0.48 h 1.44 l 0.96,-0.72 1.68,-1.44 1.2,-1.44 1.2,-1.2 0.72,-0.48 v -0.96 l -0.72,-0.24 v -0.96 l 0.48,-0.72 v -0.72 -0.96 -2.64 l -0.72,-1.2 -0.48,-0.48 -0.24,-0.96 -0.96,-0.72 -1.68,-1.2 -0.72,-0.96 -0.24,-1.2 h -0.96 l -0.96,-0.96 -0.72,-0.96 -0.24,-0.48 -1.2,-0.24 -0.72,-0.72 0.24,-1.2 0.72,-0.96 0.72,-0.72 v -0.96 l 0.48,-0.24 h 0.72 v -1.2 l 0.96,-0.72 0.72,-0.72 1.68,-0.24 1.2,0.24 0.96,0.48 0.48,0.48 0.48,-0.24 0.96,0.24 0.96,0.96 0.72,0.24 -0.24,0.48 v 0.96 l 0.48,0.48 0.72,0.72 0.96,-0.48 H 132 v 1.2 l 0.24,0.72 0.72,0.24 v 0.48 l 0.24,0.72 v 0.72 0.72 h 0.72 l 0.24,-0.72 v -1.92 l 0.48,-0.48 0.48,0.48 0.24,0.72 -0.24,1.2 -0.48,1.2 -0.24,1.2 v 1.44 1.92 l -0.48,0.96 -0.24,1.2 -0.72,0.72 0.48,0.24 -0.24,0.72 -0.24,0.48 -0.24,0.72 v 0.96 h 0.96 l 0.48,-0.72 0.48,-0.96 0.24,-0.24 v -2.88 l 0.48,-0.96 v -0.96 l 0.24,-1.44 0.72,-0.24 0.24,1.2 0.24,0.48 -0.24,4.32 h -0.72 v 0.96 l -0.24,0.48 -0.96,0.96 -0.24,0.72 0.96,-0.24 h 0.96 l -0.24,-0.72 v -0.72 l 0.24,-0.24 1.44,0.48 h 0.72 l 0.24,0.24 1.2,0.24 0.96,0.72 1.44,0.72 H 144 l 0.72,0.72 2.4,0.72 1.92,0.96 1.68,0.24 1.44,0.96 1.92,1.2 1.44,1.2 0.72,0.96 0.24,0.96 0.48,0.96 0.96,0.72 0.48,0.72 0.24,1.92 -0.24,2.16 -0.48,1.2 h -1.44 l -3.84,0.48 -2.4,0.24 -3.36,0.24 -3.84,0.24 -6.48,0.24 v -0.72 -1.2 l 0.48,-0.72 v -0.72 l -1.44,-0.24 h -1.68 l -0.96,-0.24 -2.16,-0.24 -0.24,-0.48 0.96,-0.24 1.44,-0.72 2.16,-0.48 1.44,-0.24 H 138 l 2.16,0.24 0.96,0.24 1.2,-0.48 0.72,-0.48 0.24,-0.48 1.44,-0.96 1.92,-0.96 1.68,-0.72 0.96,-0.48 -1.44,0.24 h -1.44 l -1.2,0.72 -1.68,0.72 -2.4,0.96 -1.68,0.48 -2.16,0.24 -1.68,0.24 -2.4,-0.96 -1.92,-0.72 h -3.6 l -3.12,-0.48 -1.92,0.24 -0.96,0.24 -1.44,0.24 -1.44,0.96 -1.68,1.44 -2.4,1.68 -1.92,1.68 -2.64,1.2 -0.72,0.96 h -16.8 -9.36 l -1.2,-0.48 -6.96,-0.24 -0.24,-2.64 -0.72,-0.48 -1.92,-0.72 -1.44,-0.24 h -0.96 l -0.72,-0.96 -0.72,-2.16 -0.24,-1.92 -0.24,-1.2 v -1.92 -1.44 l -0.24,-0.24 -1.92,-0.24 -1.92,0.24 -1.44,0.72 -0.96,0.72 v 0.72 l 0.48,1.92 0.48,1.44 v 2.64 l 0.24,1.68 -1.2,1.2 -1.68,0.96 -0.96,0.24 -0.96,0.72 -0.48,0.72 0.48,0.48 0.48,-0.48 0.72,0.48 0.24,0.48 h -0.72 -0.72 l -0.72,-0.24 -0.24,0.72 -1.2,0.48 -0.96,1.2 -0.96,1.2 -1.44,1.2 -0.48,1.68 -0.72,2.16 -0.48,1.2 -0.48,0.96 z" />
    <path
       id="path18"
       d="m 132.48,771.81 0.96,-0.24 0.96,-0.96 0.72,-1.2 0.24,-0.96 -0.48,0.48 -1.2,0.72 -0.48,-0.48 -1.2,-0.24 h -0.96 -0.72 l -1.2,0.24 -1.44,-0.24 -1.68,-0.24 -0.48,0.48 v 1.92 1.2 l 0.24,0.72 0.72,0.72 h 0.96 l 0.48,0.72 h 0.72 0.72 l 0.48,-0.72 h 0.72 l 0.48,0.24 0.96,-0.96 z" />
    <path
       id="path20"
       d="m 119.28,766.77 h 0.96 c 0,0 0.415,0 0.8,0 0.331,0 0.64,0 0.64,0 h 0.96 l 0.48,-0.24 h 0.72 l 1.2,-0.24 0.48,-0.96 -0.24,-1.68 0.48,-0.72 0.72,-0.48 1.2,-0.48 h -1.2 l -0.96,0.48 -0.96,0.72 -1.44,0.48 h 1.44 v 0.72 0.72 l -0.96,0.48 h -1.2 l -0.24,0.72" />
    <path
       id="path22"
       d="m 120.96,764.13 -0.48,0.72 -0.48,0.48 -0.72,-0.24 0.48,-0.72 0.72,-0.48" />
    <path
       id="path24"
       d="m 37.92,761.73 v -1.2 l 0.96,-2.88 0.72,-1.92 0.96,-1.2 1.44,-1.44 0.96,-0.72 h 1.2 1.44 v 1.2 l -0.48,0.96 -1.44,1.44 -1.2,1.44 -0.24,1.2 -0.24,1.44 -1.2,0.72 -1.92,1.2 -0.48,0.48 z" />
    <path
       id="path26"
       d="m 73.44,765.57 c 0,0 -0.0669,-0.067 -0.16,-0.16 -0.2121,-0.212 -0.56,-0.56 -0.56,-0.56 L 72,764.37 h -0.96 -0.96 l -1.2,-0.24 -0.72,0.72 -0.72,0.72 v 0.72 h 1.44 l 0.96,-0.48 h 0.96 l 1.2,-0.24" />
    <path
       id="path28"
       d="m 65.04,765.09 0.24,-0.72 -0.24,-0.48 -1.2,1.44 c 0,0 -0.1285,0.085 -0.2769,0.184 -0.2029,0.136 -0.4431,0.296 -0.4431,0.296" />
    <path
       id="path30"
       d="m 109.44,742.53 -0.48,-0.48 -1.2,-0.24 h -0.72 l -0.72,0.48 -0.96,0.24 -0.48,0.48 0.72,-0.96 0.96,-0.48 0.96,-0.72 h 0.96 0.96 l 0.24,-0.24 0.96,-0.24 v 0.72 0.72 l -0.24,0.72 z" />
    <path
       id="path32"
       d="m 115.44,746.61 0.72,-0.24 0.72,-0.48 0.24,-0.48 h 0.48 l -0.48,-0.96 -1.2,-0.96 -0.48,-0.96 -0.96,-0.72 -0.24,0.72 -0.48,0.24 -0.48,-0.24 h -0.48 l -0.24,0.48 0.24,0.48 0.48,0.24 v 1.44 l 0.48,0.72 0.24,0.72 0.72,0.24 z" />
    <path
       id="path34"
       d="m 113.28,737.97 0.48,-0.72 h 0.48 l 0.24,-0.72 h -0.72 l -0.24,0.24 h -0.72 -0.48 v 0.72 0.48 l 0.48,0.24 z" />
    <path
       id="path36"
       d="m 112.08,735.33 0.72,-0.24 0.24,-0.72 0.24,-0.48 h -0.48 l -0.48,0.48 -0.72,0.24 -0.48,0.72 -0.24,0.72 v 0.96 h 0.48 v -0.48 l 0.24,-0.72 z" />
  </g>
</svg>
